# xmcd
#
# Track frame offsets:
#	150
#	17175
#	26938
#	39175
#	56975
#	66750
#	78025
#	92138
#	104925
#	118738
#	132413
#	148200
#	162363
#	171638
#	184225
#	196125
#
# Disc length: 2777 seconds
#
# Revision: 3
# Processed by: cddbd v1.5PL3 Copyright (c) Steve Scherf et al.
# Submitted via: audiograbber 1.83.01
#
DISCID=d30ad710,f20ad710
DTITLE=Various Artist - Der Paul und sein Gaul
DYEAR=1900
DGENRE=
TTITLE0=Goldried Quintett - Der Paul und sein Gaul
TTITLE1=Tiroler Herzensbrecher - Amore in den Bergen
TTITLE2=Seppl u. seine Landsknechte - Oh schreck i kriag mein Bauch net weg
TTITLE3=Zillertaler Schürzenjäger - Zillertaler Hochzeitsblues
TTITLE4=D' Regentaler - -Iaz zapf ma no a Fasserl o
TTITLE5=Die jungen Klostertaler - I mecht nen Igel an der Leine
TTITLE6=Moor Buam Sextett - Die süssen Mädchen
TTITLE7=Die vier Spatzen aus Tirol - Parla Italiano
TTITLE8=Oberländer Musikanten - Morgenmuffel
TTITLE9=Dreiländer Quintett - Jambo
TTITLE10=Orig. Zillertaler - Ein Tiroler Mann
TTITLE11=Die 5  Weststeirer - Mei Spatzel
TTITLE12=Bayerwald Sterne - I bin a fesches Bürscherl
TTITLE13=A. Strasser u.s. Orig. Bayrisch Böhmisch Musikanten - Der Sepp hat Sta
TTITLE13=mmtischrunde
TTITLE14=Hans Linder BAND - Warum ist am Ende vom Geld noch soviel Monat da
TTITLE15=Orig. Kaprunner Spatzen - Hey Giovanni
EXTD=
EXTT0=
EXTT1=
EXTT2=
EXTT3=
EXTT4=
EXTT5=
EXTT6=
EXTT7=
EXTT8=
EXTT9=
EXTT10=
EXTT11=
EXTT12=
EXTT13=
EXTT14=
EXTT15=
PLAYORDER=
